<svg width="30" heidth="30" data-name="Layer 1" id="Layer_1" viewBox="0 0 32 32" xmlns="http://www.w3.org/2000/svg"><defs><style>.cls-1{fill:#4d4d4d;}</style></defs><title/><path class="cls-1" d="M29.57,20.53a10.35,10.35,0,0,0-1.3-1.83c-.46-.51-.94-1-1.4-1.45l-.51-.52.29-.38c.23-.31.47-.63.7-1l.42-.62c.6-.9,1.22-1.82,1.76-2.82a3,3,0,0,0,.1-3,2.94,2.94,0,0,0-2.76-1.36l-1.32,0H23.28a3.19,3.19,0,0,0-3,2l-.18.39a3.09,3.09,0,0,0-3-2.88c-.58,0-1.17,0-1.82,0s-1.33,0-2.14,0a3.39,3.39,0,0,0-2.71,1.48,2.79,2.79,0,0,0-2.08-1l-1.42,0c-.84,0-1.61,0-2.35.06A2.64,2.64,0,0,0,2.36,8.81a2.72,2.72,0,0,0-.07,2.59,43.59,43.59,0,0,0,5,8.88A10.81,10.81,0,0,0,16.17,25c.33,0,.66,0,1,0a3,3,0,0,0,2.67-1.79.86.86,0,0,0,.13.14A5.06,5.06,0,0,0,23.77,25h.38c.52,0,1.05,0,1.62-.06l1.1,0a3.64,3.64,0,0,0,1.22-.25,2.77,2.77,0,0,0,1.48-4.12Zm-2.21,2.26a1.6,1.6,0,0,1-.57.11c-.93,0-1.86,0-2.79.09h-.23a3.1,3.1,0,0,1-2.35-1.11c-.5-.53-.94-1.12-1.47-1.6a1.81,1.81,0,0,0-1-.49.2.2,0,0,0-.11,0c-.3.09-.51.62-.66,1a4,4,0,0,0-.12,1c-.06.75-.37,1-1.1,1.09-.28,0-.56,0-.83,0a8.86,8.86,0,0,1-7.28-3.88,40.85,40.85,0,0,1-4.77-8.48c-.26-.59-.09-1,.54-1s1.48-.06,2.23-.06c.46,0,.91,0,1.37,0s.77.42,1,.88c.72,1.42,1.47,2.82,2.24,4.22a3.55,3.55,0,0,0,.76.88.73.73,0,0,0,.46.21c.21,0,.39-.17.47-.49a8.78,8.78,0,0,0,0-4.35c-.13-.42-.72-.71-1.18-1.13a1.36,1.36,0,0,1,1.2-.72C13.87,9,14.55,9,15.24,9s1.14,0,1.7.05c.82,0,1.17.5,1.17,1.34,0,1.07-.05,2.14-.06,3.21a8.79,8.79,0,0,0,.1,1.54c.07.37.24.57.47.57a.82.82,0,0,0,.49-.25A5.1,5.1,0,0,0,20,14.32c.71-1.28,1.41-2.59,2-3.92a1.22,1.22,0,0,1,1.2-.86h.8l2.78,0h0c1.06,0,1.41.49.89,1.46-.61,1.14-1.36,2.2-2.08,3.28-.41.63-.89,1.2-1.3,1.82a1.08,1.08,0,0,0,.15,1.64c.74.78,1.53,1.52,2.25,2.32a8.17,8.17,0,0,1,1,1.49C28.17,22.12,28,22.54,27.36,22.79Z"/></svg>